<svg width="93" height="26" viewBox="0 0 93 26" fill="none" xmlns="http://www.w3.org/2000/svg">
<path d="M7.73691 25.5683H0V0.431673H7.77012V3.42018H2.92209V11.3231H7.7037V14.1788H2.92209V22.447H7.73691V25.5683Z" fill="white"/>
<path d="M12.6827 25.5683H9.76064V0.431673H14.9739C18.1285 0.431673 18.9918 2.3576 18.9918 8.79949C18.9918 15.1418 18.1617 17.433 14.9407 17.433H12.6827V25.5683ZM12.6827 14.5109H14.4758C15.5052 14.5109 16.0365 13.3155 16.0365 8.73308C16.0365 4.18391 15.472 3.38697 14.4426 3.38697H12.6827V14.5109Z" fill="white"/>
<path d="M36.9197 15.9387H39.6758C39.7422 16.7024 39.7422 17.433 39.7422 18.1967C39.7422 23.41 38.746 26 35.2262 26C32.9018 26 31.8061 25.4687 31.2084 23.9413C30.6107 22.4802 30.345 20.5543 30.345 12.7842C30.345 3.85185 30.8763 2.88889 31.2416 2.02554C31.8725 0.564496 32.7358 0 35.0934 0C36.7205 0 37.617 0.265645 38.3144 0.962962C39.1777 1.82631 39.709 4.1507 39.709 7.40485C39.709 8.2682 39.6758 8.8659 39.6426 9.62963H36.8533C36.8865 8.89911 36.8865 8.56705 36.8865 7.47126C36.8865 5.44572 36.7205 4.25032 36.4216 3.61941C36.156 3.05492 35.7907 2.92209 35.0934 2.92209C34.1969 2.92209 33.8648 3.18774 33.6656 3.98467C33.3667 5.01405 33.2671 6.17624 33.2671 12.751C33.2671 19.4253 33.3999 20.7535 33.6656 21.8161C33.8648 22.5798 34.2301 22.8787 35.2262 22.8787C36.0232 22.8787 36.4216 22.3806 36.6209 21.5172C36.8201 20.6207 36.9529 19.4585 36.9529 17.931C36.9529 17.1673 36.9529 16.6028 36.9197 15.9387Z" fill="white"/>
<path d="M49.4709 25.5683H41.734V0.431673H49.5041V3.42018H44.6561V11.3231H49.4377V14.1788H44.6561V22.447H49.4709V25.5683Z" fill="white"/>
<path d="M60.9915 25.5683H59.464C55.0477 10.9579 54.616 9.4304 54.2839 8.06897H54.1179C54.1511 9.4636 54.1511 11.0243 54.1511 12.8506V25.5683H51.4614V0.431673H54.8484C57.8037 11.5888 58.003 12.3525 58.1358 13.1494H58.3018C58.2686 12.3193 58.2686 11.5556 58.2686 10.0613V0.431673H60.9915V25.5683Z" fill="white"/>
<path d="M68.483 25.5683H65.5277V3.42018H62.4063V0.431673H71.5711V3.42018H68.483V25.5683Z" fill="white"/>
<path d="M82.6885 25.5683H79.6668C79.4343 25.037 79.3347 24.6386 79.1687 21.6501C79.0691 19.9898 79.0027 18.2299 78.7702 16.5696C78.571 15.2082 78.2721 14.9425 77.3756 14.9425H75.9809V25.5683H73.0589V0.431673H78.3717C79.8992 0.431673 80.6297 0.796934 81.2606 1.59387C82.0908 2.65645 82.3564 4.08429 82.3564 7.20562C82.3564 10.3602 82.1572 11.4227 81.7919 12.3193C81.4931 13.0498 81.0614 13.4483 80.5633 13.6475V13.8135C80.995 14.0128 81.4931 14.5441 81.6591 15.9055C81.958 18.1967 82.1572 20.5543 82.29 23.1111C82.3564 24.1405 82.4892 24.7714 82.6885 25.4355V25.5683ZM75.9809 12.2529H77.3092C78.1061 12.2529 78.6374 12.0868 78.9695 11.3563C79.3015 10.659 79.3679 10.1277 79.3679 7.20562C79.3679 4.98084 79.3015 4.44955 79.0027 3.98467C78.7038 3.5198 78.3717 3.35377 77.8405 3.35377H75.9809V12.2529Z" fill="white"/>
<path d="M92.1129 25.5683H84.376V0.431673H92.1461V3.42018H87.2981V11.3231H92.0797V14.1788H87.2981V22.447H92.1129V25.5683Z" fill="white"/>
<path d="M23.4976 12.6654V25.5683H26.8093V12.6654H23.4976Z" fill="white"/>
<path d="M29.3741 5.51154C29.7695 5.8554 29.7688 6.47258 29.3698 6.81145C28.6102 7.45797 27.1893 8.35473 25.153 8.35473C24.946 8.35473 22.6406 8.32041 20.9318 6.83391C20.5365 6.49006 20.5371 5.87287 20.9362 5.53401C21.6958 4.88749 23.1167 3.99072 25.153 3.99072C25.36 3.99072 27.6654 4.02505 29.3741 5.51154Z" fill="#0473F4"/>
<path d="M25.1531 8.35765C26.3533 8.35765 27.3262 7.38087 27.3262 6.17595C27.3262 4.97104 26.3533 3.99426 25.1531 3.99426C23.953 3.99426 22.9801 4.97104 22.9801 6.17595C22.9801 7.38087 23.953 8.35765 25.1531 8.35765Z" fill="#F71616"/>
<path d="M29.6141 5.6217C29.8721 5.94247 29.869 6.40115 29.6035 6.71567C28.9248 7.5207 27.4212 8.91733 25.1537 8.91733C24.9373 8.91733 22.4175 8.87053 20.6938 6.7269C20.4359 6.40614 20.439 5.94746 20.7044 5.63294C21.3832 4.82791 22.8868 3.43127 25.1543 3.43127C25.3706 3.43127 27.8905 3.47808 29.6141 5.6217Z" fill="#8860F4"/>
<path d="M25.1532 4.34106C25.2483 4.34106 25.7934 4.34731 26.5195 4.47711C27.4605 4.6456 28.7068 5.02128 29.6789 5.86001C29.8698 6.02539 29.8611 6.32368 29.6659 6.48344C29.1531 6.90218 28.0833 7.61672 26.4909 7.89255C26.0794 7.9637 25.6337 8.00551 25.1526 8.00551C25.0569 8.00551 24.5117 7.99927 23.7857 7.86946C22.8447 7.70097 21.5984 7.32529 20.6263 6.48594C20.4354 6.32119 20.4441 6.02289 20.6393 5.86313C21.1521 5.44439 22.2218 4.73047 23.8137 4.45464C24.2252 4.38288 24.6721 4.34106 25.1532 4.34106Z" fill="#EDEDED"/>
<path d="M25.1529 4.34106C25.248 4.34106 25.7931 4.34731 26.5191 4.47711C27.0114 4.8765 27.326 5.48808 27.326 6.17329C27.326 6.8716 26.9996 7.49316 26.4912 7.89255C26.0797 7.9637 25.634 8.00551 25.1529 8.00551C25.0572 8.00551 24.5121 7.99927 23.7861 7.86946C23.2938 7.47007 22.9792 6.8585 22.9792 6.17329C22.9792 5.47497 23.3056 4.85404 23.8134 4.45464C24.2249 4.38288 24.6718 4.34106 25.1529 4.34106Z" fill="#00E77C"/>
<path d="M25.1535 7.10845C25.6664 7.10845 26.0821 6.69103 26.0821 6.17611C26.0821 5.6612 25.6664 5.24377 25.1535 5.24377C24.6406 5.24377 24.2249 5.6612 24.2249 6.17611C24.2249 6.69103 24.6406 7.10845 25.1535 7.10845Z" fill="#0F0F0F"/>
</svg>
