<?xml version="1.0" encoding="UTF-8"?>
<svg id="Layer_1" data-name="Layer 1" xmlns="http://www.w3.org/2000/svg" viewBox="0 0 1920 674.18">
  <defs>
    <style>
      .cls-1 {
        fill: #c5a065;
      }
    </style>
  </defs>
  <g>
    <g>
      <path class="cls-1" d="M229.79,0c0,63.05-25.56,120.12-66.87,161.41C121.61,202.73,64.56,228.26,1.54,228.28h-.04V0h228.28Z"/>
      <path class="cls-1" d="M458.09,0v228.28c-126.08,0-228.3-102.2-228.3-228.28h228.3Z"/>
      <path class="cls-1" d="M229.79,456.49v.07H1.51v-228.28h.04c126.06,0,228.25,102.17,228.25,228.21Z"/>
      <path class="cls-1" d="M458.09,228.28v228.28h-228.3v-.07c.02-63.01,25.57-120.07,66.87-161.34,41.31-41.31,98.38-66.87,161.43-66.87Z"/>
    </g>
    <g>
      <path class="cls-1" d="M1431.69,228.28c0,63.05-25.56,120.12-66.87,161.41-41.3,41.31-98.37,66.87-161.41,66.87s-120.12-25.56-161.43-66.87c-41.31-41.3-66.87-98.37-66.87-161.41h456.58Z"/>
      <path class="cls-1" d="M1203.41,228.28h-.04c0-.98,0-1.96.02-2.94.02.98.02,1.96.02,2.94Z"/>
      <path class="cls-1" d="M1431.69,0c0,126.08-102.2,228.28-228.28,228.28,0-.98,0-1.96-.02-2.94.81-61.89,26.2-117.82,66.87-158.47C1311.57,25.56,1368.64,0,1431.69,0Z"/>
      <path class="cls-1" d="M1203.39,225.34c-.02.98-.02,1.96-.02,2.94-63.03-.02-120.08-25.56-161.4-66.87-41.31-41.3-66.87-98.37-66.87-161.41,125.11,0,226.7,100.61,228.28,225.34Z"/>
      <path class="cls-1" d="M1203.41,228.28h-.04c0-.98,0-1.96.02-2.94.02.98.02,1.96.02,2.94Z"/>
    </g>
    <path class="cls-1" d="M939.21,0c-122.94,0-222.6,99.66-222.6,222.6V0h-228.3c0,126.08,102.2,228.28,228.28,228.28h-228.28v228.28h228.3c63.03,0,120.1-25.56,161.41-66.87,41.31-41.3,66.87-98.37,66.87-161.41V0h-5.68ZM879.14,81.87c-6.73,0-12.18-5.45-12.18-12.16s5.45-12.16,12.18-12.16,12.16,5.43,12.16,12.16-5.45,12.16-12.16,12.16Z"/>
    <g>
      <path class="cls-1" d="M1757.08,66.87c-41.31,41.3-66.87,98.37-66.87,161.41-63.03,0-120.1,25.56-161.41,66.87-41.31,41.3-66.87,98.37-66.87,161.41h456.56V0c-63.03,0-120.1,25.56-161.41,66.87ZM1842.61,399.02c-6.73,0-12.18-5.45-12.18-12.16s5.45-12.16,12.18-12.16,12.16,5.43,12.16,12.16-5.45,12.16-12.16,12.16Z"/>
      <path class="cls-1" d="M1690.21,0v228.28h-228.28c0-63.05,25.56-120.12,66.87-161.41C1570.11,25.56,1627.18,0,1690.21,0Z"/>
    </g>
  </g>
  <g>
    <path class="cls-1" d="M39.38,674.18c-6.96,0-13.23-1.21-18.8-3.63-5.57-2.42-10.15-5.89-13.74-10.41-3.59-4.51-5.87-9.88-6.84-16.09l16.52-2.51c1.41,5.64,4.31,10,8.69,13.08,4.38,3.08,9.44,4.63,15.17,4.63,3.39,0,6.58-.53,9.58-1.59,3-1.06,5.43-2.6,7.3-4.63,1.87-2.02,2.81-4.52,2.81-7.47,0-1.32-.22-2.54-.66-3.67-.44-1.12-1.09-2.12-1.95-3.01s-1.96-1.69-3.3-2.41c-1.34-.73-2.9-1.36-4.66-1.88l-24.58-7.27c-2.11-.62-4.39-1.44-6.84-2.48-2.45-1.03-4.76-2.47-6.94-4.29s-3.96-4.16-5.35-7-2.08-6.35-2.08-10.54c0-6.12,1.55-11.27,4.66-15.43,3.11-4.16,7.29-7.28,12.56-9.35,5.26-2.07,11.11-3.08,17.54-3.04,6.52.04,12.33,1.16,17.45,3.34,5.11,2.18,9.38,5.34,12.82,9.48,3.44,4.14,5.86,9.14,7.27,15l-17.12,2.97c-.71-3.35-2.06-6.2-4.06-8.56-2.01-2.36-4.45-4.15-7.33-5.39-2.89-1.23-5.96-1.89-9.22-1.98-3.17-.04-6.11.43-8.82,1.42-2.71.99-4.89,2.41-6.54,4.26-1.65,1.85-2.48,4.01-2.48,6.48,0,2.33.7,4.24,2.11,5.72,1.41,1.48,3.16,2.64,5.25,3.5,2.09.86,4.22,1.58,6.38,2.15l17.05,4.76c2.33.62,4.96,1.45,7.86,2.51,2.91,1.06,5.71,2.53,8.39,4.43,2.69,1.89,4.9,4.38,6.64,7.47,1.74,3.08,2.61,7,2.61,11.76s-1.02,9.26-3.07,12.98c-2.05,3.72-4.81,6.82-8.29,9.28-3.48,2.47-7.46,4.32-11.93,5.55s-9.15,1.85-14.04,1.85Z"/>
    <path class="cls-1" d="M92.38,672.2v-95.16h15.92v95.16h-15.92Z"/>
    <path class="cls-1" d="M129.45,672.2v-95.16h15.93v80.22h42.03v14.93h-57.95Z"/>
    <path class="cls-1" d="M198.63,672.2v-95.16h61.46v14.93h-45.53v23.46h37.6v14.93h-37.6v26.89h45.53v14.93h-61.46Z"/>
    <path class="cls-1" d="M275.95,672.2v-95.16h16.12l44.14,67.07v-67.07h16.12v95.16h-16.12l-44.14-67.07v67.07h-16.12Z"/>
    <path class="cls-1" d="M393.7,672.2v-80.22h-30.79v-14.93h77.51v14.93h-30.79v80.22h-15.93Z"/>
    <path class="cls-1" d="M496.32,672.2v-80.22h-30.79v-14.93h77.51v14.93h-30.79v80.22h-15.93Z"/>
    <path class="cls-1" d="M593.85,674.18c-9.52,0-17.67-2.08-24.45-6.24-6.79-4.16-11.99-9.97-15.63-17.41-3.63-7.44-5.45-16.08-5.45-25.9s1.82-18.46,5.45-25.9c3.63-7.44,8.84-13.25,15.63-17.41,6.78-4.16,14.93-6.25,24.45-6.25s17.68,2.08,24.48,6.25c6.81,4.16,12.03,9.97,15.66,17.41,3.63,7.45,5.45,16.08,5.45,25.9s-1.82,18.46-5.45,25.9c-3.63,7.45-8.85,13.25-15.66,17.41-6.81,4.16-14.97,6.24-24.48,6.24ZM593.85,659.18c6.39.04,11.71-1.37,15.96-4.23,4.25-2.86,7.44-6.89,9.58-12.09,2.14-5.2,3.21-11.28,3.21-18.24s-1.07-13.01-3.21-18.14c-2.14-5.13-5.33-9.13-9.58-11.99-4.25-2.86-9.57-4.34-15.96-4.43-6.39-.04-11.7,1.37-15.92,4.23-4.23,2.87-7.41,6.9-9.55,12.09-2.14,5.2-3.21,11.28-3.21,18.24s1.06,13.01,3.17,18.14c2.11,5.13,5.3,9.13,9.55,11.99,4.25,2.86,9.57,4.34,15.96,4.43Z"/>
    <path class="cls-1" d="M690.99,674.18c-7.58,0-14.24-1.54-19.99-4.63-5.75-3.08-10.24-7.42-13.48-13.02-3.24-5.59-4.86-12.16-4.86-19.69v-59.67l16.12-.13v59.4c0,3.57.61,6.76,1.82,9.58,1.21,2.82,2.85,5.21,4.92,7.17,2.07,1.96,4.45,3.45,7.14,4.46,2.69,1.01,5.46,1.52,8.33,1.52s5.76-.52,8.43-1.55c2.66-1.03,5.03-2.53,7.1-4.49,2.07-1.96,3.7-4.35,4.89-7.17s1.78-5.99,1.78-9.52v-59.4h16.12v59.8c0,7.53-1.62,14.1-4.86,19.69-3.24,5.6-7.73,9.93-13.48,13.02-5.75,3.08-12.41,4.63-19.99,4.63Z"/>
    <path class="cls-1" d="M747.82,672.2v-95.16h39.32c.93,0,2.11.03,3.57.1,1.45.07,2.8.21,4.03.43,5.51.84,10.05,2.67,13.64,5.49s6.26,6.38,8,10.67c1.74,4.3,2.61,9.07,2.61,14.31,0,7.75-1.96,14.42-5.88,19.99-3.92,5.57-9.93,9.02-18.04,10.34l-6.81.59h-24.52v33.24h-15.93ZM763.74,624.09h22.73c.88,0,1.87-.04,2.97-.13,1.1-.09,2.11-.26,3.04-.53,2.64-.66,4.73-1.83,6.25-3.5,1.52-1.67,2.6-3.57,3.24-5.68.64-2.11.96-4.19.96-6.21s-.32-4.11-.96-6.24c-.64-2.14-1.72-4.04-3.24-5.72s-3.6-2.84-6.25-3.5c-.93-.27-1.94-.43-3.04-.5-1.1-.07-2.09-.1-2.97-.1h-22.73v32.11ZM802.47,672.2l-18.77-38.72,16.19-3.57,20.62,42.29h-18.04Z"/>
    <path class="cls-1" d="M836.36,672.2v-95.16h15.92v95.16h-15.92Z"/>
    <path class="cls-1" d="M907.33,674.18c-6.96,0-13.23-1.21-18.8-3.63-5.57-2.42-10.15-5.89-13.74-10.41-3.59-4.51-5.87-9.88-6.84-16.09l16.52-2.51c1.41,5.64,4.3,10,8.69,13.08,4.38,3.08,9.44,4.63,15.17,4.63,3.39,0,6.58-.53,9.58-1.59,3-1.06,5.43-2.6,7.3-4.63,1.87-2.02,2.81-4.52,2.81-7.47,0-1.32-.22-2.54-.66-3.67-.44-1.12-1.09-2.12-1.95-3.01s-1.96-1.69-3.3-2.41c-1.35-.73-2.9-1.36-4.66-1.88l-24.58-7.27c-2.11-.62-4.39-1.44-6.84-2.48-2.45-1.03-4.76-2.47-6.94-4.29s-3.97-4.16-5.35-7-2.08-6.35-2.08-10.54c0-6.12,1.55-11.27,4.66-15.43s7.29-7.28,12.56-9.35c5.26-2.07,11.11-3.08,17.54-3.04,6.52.04,12.33,1.16,17.45,3.34,5.11,2.18,9.38,5.34,12.82,9.48,3.44,4.14,5.86,9.14,7.27,15l-17.12,2.97c-.71-3.35-2.06-6.2-4.06-8.56-2.01-2.36-4.45-4.15-7.33-5.39-2.89-1.23-5.96-1.89-9.22-1.98-3.17-.04-6.11.43-8.82,1.42-2.71.99-4.89,2.41-6.54,4.26-1.65,1.85-2.48,4.01-2.48,6.48,0,2.33.7,4.24,2.11,5.72,1.41,1.48,3.16,2.64,5.25,3.5,2.09.86,4.22,1.58,6.38,2.15l17.05,4.76c2.33.62,4.96,1.45,7.86,2.51,2.91,1.06,5.7,2.53,8.39,4.43,2.69,1.89,4.9,4.38,6.64,7.47,1.74,3.08,2.61,7,2.61,11.76s-1.03,9.26-3.07,12.98c-2.05,3.72-4.81,6.82-8.29,9.28-3.48,2.47-7.46,4.32-11.93,5.55s-9.15,1.85-14.04,1.85Z"/>
    <path class="cls-1" d="M959.01,672.2v-95.16h14.34l32.91,67.4,32.91-67.4h14.34v95.16h-14.87v-60.99l-29.21,60.99h-6.35l-29.14-60.99v60.99h-14.93Z"/>
    <path class="cls-1" d="M1098.43,672.2v-95.16h57.29v15.92h-41.36v23.72h33.44v15.86h-33.44v39.65h-15.93Z"/>
    <path class="cls-1" d="M1207.86,674.18c-9.52,0-17.67-2.08-24.45-6.24-6.79-4.16-11.99-9.97-15.63-17.41-3.64-7.44-5.45-16.08-5.45-25.9s1.82-18.46,5.45-25.9c3.63-7.44,8.84-13.25,15.63-17.41,6.78-4.16,14.93-6.25,24.45-6.25s17.68,2.08,24.48,6.25c6.81,4.16,12.03,9.97,15.66,17.41,3.64,7.45,5.45,16.08,5.45,25.9s-1.82,18.46-5.45,25.9c-3.63,7.45-8.85,13.25-15.66,17.41-6.81,4.16-14.97,6.24-24.48,6.24ZM1207.86,659.18c6.39.04,11.71-1.37,15.96-4.23,4.25-2.86,7.44-6.89,9.58-12.09,2.14-5.2,3.21-11.28,3.21-18.24s-1.07-13.01-3.21-18.14c-2.14-5.13-5.33-9.13-9.58-11.99-4.25-2.86-9.57-4.34-15.96-4.43-6.39-.04-11.7,1.37-15.93,4.23-4.23,2.87-7.41,6.9-9.55,12.09-2.14,5.2-3.21,11.28-3.21,18.24s1.06,13.01,3.17,18.14c2.12,5.13,5.3,9.13,9.55,11.99s9.57,4.34,15.96,4.43Z"/>
    <path class="cls-1" d="M1305,674.18c-7.58,0-14.24-1.54-19.99-4.63-5.75-3.08-10.24-7.42-13.48-13.02-3.24-5.59-4.86-12.16-4.86-19.69v-59.67l16.12-.13v59.4c0,3.57.6,6.76,1.82,9.58,1.21,2.82,2.85,5.21,4.92,7.17,2.07,1.96,4.45,3.45,7.14,4.46s5.46,1.52,8.33,1.52,5.76-.52,8.43-1.55c2.67-1.03,5.03-2.53,7.1-4.49,2.07-1.96,3.7-4.35,4.89-7.17,1.19-2.82,1.78-5.99,1.78-9.52v-59.4h16.12v59.8c0,7.53-1.62,14.1-4.86,19.69-3.24,5.6-7.73,9.93-13.48,13.02-5.75,3.08-12.41,4.63-19.99,4.63Z"/>
    <path class="cls-1" d="M1361.83,672.2v-95.16h16.12l44.14,67.07v-67.07h16.12v95.16h-16.12l-44.14-67.07v67.07h-16.12Z"/>
    <path class="cls-1" d="M1456.72,672.2v-95.16h30.33c.79,0,2.37.02,4.72.07,2.36.04,4.64.2,6.84.46,7.53.97,13.91,3.65,19.13,8.03,5.22,4.38,9.17,9.97,11.86,16.75,2.69,6.79,4.03,14.21,4.03,22.27s-1.35,15.49-4.03,22.27c-2.69,6.79-6.64,12.37-11.86,16.75-5.22,4.39-11.6,7.06-19.13,8.03-2.16.26-4.43.42-6.81.46-2.38.04-3.97.07-4.76.07h-30.33ZM1472.91,657.2h14.14c1.32,0,3.01-.04,5.05-.13,2.05-.09,3.87-.29,5.45-.59,4.49-.84,8.15-2.84,10.97-6.01,2.82-3.17,4.9-7.03,6.24-11.56s2.02-9.29,2.02-14.27-.68-10-2.05-14.54c-1.37-4.54-3.47-8.35-6.31-11.43-2.84-3.08-6.47-5.04-10.87-5.88-1.59-.35-3.4-.56-5.45-.63-2.05-.07-3.73-.1-5.05-.1h-14.14v65.15Z"/>
    <path class="cls-1" d="M1540.04,672.2l30-95.16h23.33l30,95.16h-16.39l-27.22-85.38h3.57l-26.89,85.38h-16.39ZM1556.76,651.58v-14.87h49.95v14.87h-49.95Z"/>
    <path class="cls-1" d="M1650.2,672.2v-80.22h-30.79v-14.93h77.51v14.93h-30.79v80.22h-15.93Z"/>
    <path class="cls-1" d="M1708.81,672.2v-95.16h15.93v95.16h-15.93Z"/>
    <path class="cls-1" d="M1784.8,674.18c-9.51,0-17.66-2.08-24.45-6.24-6.79-4.16-11.99-9.97-15.63-17.41-3.63-7.44-5.45-16.08-5.45-25.9s1.82-18.46,5.45-25.9c3.64-7.44,8.84-13.25,15.63-17.41,6.78-4.16,14.93-6.25,24.45-6.25s17.68,2.08,24.48,6.25c6.81,4.16,12.03,9.97,15.66,17.41,3.63,7.45,5.45,16.08,5.45,25.9s-1.82,18.46-5.45,25.9c-3.63,7.45-8.85,13.25-15.66,17.41s-14.97,6.24-24.48,6.24ZM1784.8,659.18c6.39.04,11.71-1.37,15.96-4.23,4.25-2.86,7.44-6.89,9.58-12.09,2.14-5.2,3.2-11.28,3.2-18.24s-1.07-13.01-3.2-18.14c-2.14-5.13-5.33-9.13-9.58-11.99-4.25-2.86-9.57-4.34-15.96-4.43-6.39-.04-11.69,1.37-15.92,4.23-4.23,2.87-7.41,6.9-9.55,12.09-2.14,5.2-3.2,11.28-3.2,18.24s1.06,13.01,3.17,18.14c2.11,5.13,5.3,9.13,9.55,11.99,4.25,2.86,9.57,4.34,15.96,4.43Z"/>
    <path class="cls-1" d="M1843.61,672.2v-95.16h16.12l44.14,67.07v-67.07h16.12v95.16h-16.12l-44.14-67.07v67.07h-16.12Z"/>
  </g>
</svg>